<svg xmlns="http://www.w3.org/2000/svg" width="89" height="22" viewBox="0 0 89 22">
    <g fill="none" fill-rule="evenodd">
        <path fill="#A4D6EF" d="M0 .42h8.22c6.39 0 11.01 4.17 11.01 10.14 0 6.06-4.62 10.26-11.01 10.26H0V.42zm5.07 15.84h3.15c3.3 0 5.85-2.46 5.85-5.7 0-3.15-2.55-5.58-5.85-5.58H5.07v11.28zM31.989 0c6.18 0 10.83 4.68 10.83 10.62 0 5.94-4.65 10.62-10.83 10.62-6.15 0-10.8-4.68-10.8-10.62 0-5.94 4.65-10.62 10.8-10.62zm0 16.53c3.3 0 5.67-2.7 5.67-5.91s-2.37-5.91-5.67-5.91-5.67 2.7-5.67 5.91 2.37 5.91 5.67 5.91z"/>
        <path fill="#FFF" d="M77.235 0c6.18 0 10.83 4.68 10.83 10.62 0 5.94-4.65 10.62-10.83 10.62-6.15 0-10.8-4.68-10.8-10.62 0-5.94 4.65-10.62 10.8-10.62zm0 16.53c3.3 0 5.67-2.7 5.67-5.91s-2.37-5.91-5.67-5.91-5.67 2.7-5.67 5.91 2.37 5.91 5.67 5.91zm-27.165-.27V4.98h3.15c3.3 0 5.85 2.43 5.85 5.58 0 3.24-2.55 5.7-5.85 5.7h-3.15zM45 .42h8.22c6.39 0 11.01 4.17 11.01 10.14 0 6.06-4.62 10.26-11.01 10.26H45V.42z"/>
    </g>
</svg>
