<svg xmlns="http://www.w3.org/2000/svg" width="15" height="15" viewBox="0 0 15 15">
    <g fill="none" fill-rule="evenodd">
        <path d="M-3-1h20v20H-3z"/>
        <path fill="#FFF" fill-rule="nonzero" d="M12.693 0h-10.2C1.168 0 0 .963 0 2.289v10.2C0 13.814 1.168 15 2.493 15H8.31c-.011-1.966.003-4.155-.006-6.058-.403-.004-.806-.025-1.21-.03.002-.673.002-1.36.002-2.032.402-.005.805-.006 1.208-.01.012-.653-.013-1.311.013-1.964.04-.517.237-1.04.624-1.397.468-.446 1.133-.597 1.761-.616.664-.006 1.328-.003 1.992-.003.003.7.003 1.401 0 2.102l-1.288-.001c-.272-.017-.551.19-.6.459-.007.469-.003.938-.003 1.406.63.003 1.259 0 1.888.002a26.27 26.27 0 0 1-.229 2.026c-.556.005-1.112.055-1.668.058-.004 1.902.002 4.092-.003 6.058h1.903C14.02 15 15 13.814 15 12.489v-10.2C15 .963 14.019 0 12.693 0z"/>
    </g>
</svg>
