<svg xmlns="http://www.w3.org/2000/svg" width="18" height="18" viewBox="0 0 18 18">
    <g fill="none" fill-rule="evenodd">
        <path d="M-1-1h20v20H-1z"/>
        <path fill="#FFF" d="M8.79 0a8.79 8.79 0 0 0-2.778 17.13c.44.08.6-.19.6-.424 0-.208-.008-.761-.012-1.494-2.445.53-2.961-1.179-2.961-1.179-.4-1.015-.976-1.285-.976-1.285-.798-.546.06-.535.06-.535.883.063 1.347.906 1.347.906.784 1.343 2.057.955 2.558.73.08-.567.306-.955.558-1.174-1.952-.222-4.004-.977-4.004-4.345 0-.96.343-1.744.905-2.358-.09-.223-.392-1.116.086-2.326 0 0 .738-.237 2.417.9a8.419 8.419 0 0 1 2.2-.296c.747.004 1.499.101 2.201.297 1.678-1.138 2.415-.901 2.415-.901.48 1.21.178 2.103.087 2.326.563.614.904 1.399.904 2.358 0 3.377-2.055 4.12-4.014 4.338.316.27.597.807.597 1.627 0 1.175-.01 2.123-.01 2.411 0 .236.158.51.604.423A8.79 8.79 0 0 0 8.79 0"/>
    </g>
</svg>
