<svg xmlns="http://www.w3.org/2000/svg" width="16" height="14" viewBox="0 0 16 14">
    <g fill="none" fill-rule="evenodd">
        <g fill="#FFF" fill-rule="nonzero">
            <circle cx="8" cy="8" r="2.37"/>
            <path d="M5.778.593L4.422 2.074H2.074c-.815 0-1.481.667-1.481 1.482v8.888c0 .815.666 1.482 1.481 1.482h11.852c.815 0 1.481-.667 1.481-1.482V3.556c0-.815-.666-1.482-1.481-1.482h-2.348L10.222.593H5.778zM8 11.703A3.705 3.705 0 0 1 4.296 8 3.705 3.705 0 0 1 8 4.296 3.705 3.705 0 0 1 11.704 8 3.705 3.705 0 0 1 8 11.704z"/>
        </g>
        <path d="M-2-1h20v20H-2z"/>
    </g>
</svg>
