<?xml version="1.0" encoding="UTF-8"?>
<svg width="17px" height="30px" viewBox="0 0 17 30" version="1.1" xmlns="http://www.w3.org/2000/svg" xmlns:xlink="http://www.w3.org/1999/xlink">
    <!-- Generator: Sketch 51.2 (57519) - http://www.bohemiancoding.com/sketch -->
    <title>로고</title>
    <desc>Created with Sketch.</desc>
    <defs></defs>
    <g id="플레이스토어-&amp;-랜딩" stroke="none" stroke-width="1" fill="none" fill-rule="evenodd" stroke-linecap="round" stroke-linejoin="round">
        <g id="Desktop-HD" transform="translate(-705.000000, -537.000000)" fill="#565656" stroke="#565656" stroke-width="1.96987825">
            <g id="로고" transform="translate(706.000000, 538.000000)">
                <path d="M4.64885482,19.1401172 C5.18562012,20.5247673 6.48390699,21.501325 8.00025024,21.501325 C8.03890496,21.501325 8.07741798,21.5006904 8.11578029,21.4994306 L7.38148382,21.9055871 L7.57058525,22.0480853 L0.86665381,28 L4.41025273,20.6037578 L4.64885482,19.1401172 Z M4.49959644,18.6671306 L1.25804943,15.3427713 L5.9151628,14.6307939 C4.98957492,15.3155623 4.38527639,16.4439928 4.38527639,17.7200575 C4.38527639,18.0471075 4.42497126,18.3644598 4.49959644,18.6671306 Z M6.04105127,14.5417425 L6.4708111,13.6255831 L6.31318677,13.6255831 L8.08523277,0 L9.85727878,13.6255831 L9.78723833,13.6255831 L10.2522728,14.6169409 L15,15.3427713 L11.5645124,18.8660258 L12.375521,23.8409412 L8.14063404,21.4985262 C10.0720654,21.4213821 11.6152241,19.7592218 11.6152241,17.7200575 C11.6152241,15.6317211 9.99674517,13.93879 8.00025024,13.93879 C7.27817554,13.93879 6.60554762,14.1602356 6.04105127,14.5417425 Z" id="Combined-Shape"></path>
            </g>
        </g>
    </g>
</svg>