<svg xmlns="http://www.w3.org/2000/svg" width="16" height="16" viewBox="0 0 16 16">
    <g fill="none" fill-rule="evenodd">
        <path d="M-2-1h20v20H-2z"/>
        <g fill="#FFF" fill-rule="nonzero">
            <path d="M15.326 5.726C13.698.336 11.368-.926 5.951.674.56 2.302-.702 4.632.898 10.049c1.628 5.39 3.958 6.653 9.376 5.053 5.417-1.628 6.68-3.986 5.052-9.376zm-2.722 3.51l-1.011.336.365 1.067c.14.42-.084.898-.505 1.038a.997.997 0 0 1-.281.056.809.809 0 0 1-.758-.561l-.393-1.067-2.105.702.365 1.067c.14.42-.085.898-.506 1.038a.997.997 0 0 1-.28.056.809.809 0 0 1-.758-.561l-.365-1.067-1.01.337a.997.997 0 0 1-.281.056.809.809 0 0 1-.758-.561c-.14-.421.084-.898.505-1.039l1.01-.337-.673-2.02-1.01.336a.997.997 0 0 1-.281.056.809.809 0 0 1-.758-.561c-.14-.421.084-.898.505-1.039l1.01-.336-.364-1.067c-.14-.421.084-.898.505-1.039.421-.14.898.085 1.039.506l.364 1.066 2.106-.702-.31-1.066c-.14-.421.085-.898.506-1.039.421-.14.898.084 1.039.505l.365 1.067 1.01-.337c.421-.14.898.085 1.039.506.14.42-.084.898-.505 1.038l-1.039.337.674 2.021 1.01-.337c.421-.14.898.084 1.039.505.14.422-.084.899-.505 1.04z"/>
            <path d="M7.42 9.235l-.677-2.023 2.102-.704.678 2.023z"/>
        </g>
    </g>
</svg>
